<?xml version="1.0" encoding="UTF-8" standalone="no"?>
<!-- Generator: Gravit.io -->
<svg xmlns="http://www.w3.org/2000/svg" xmlns:xlink="http://www.w3.org/1999/xlink" style="isolation:isolate" viewBox="0 0 45 45" width="45pt" height="45pt"><defs><clipPath id="_clipPath_uldvm8a0UQZqRC9BXbFFdtDseOSF0zvp"><rect width="45" height="45"/></clipPath></defs><g clip-path="url(#_clipPath_uldvm8a0UQZqRC9BXbFFdtDseOSF0zvp)"><g><g><path d=" M 11.2 5.9 L 10.45 4.59 L 13.06 3.11 L 13.8 4.41 L 16.38 8.95 L 17.12 10.25 L 14.52 11.73 L 13.77 10.43 L 11.2 5.9 Z " fill="#dee2e6"/><path d=" M 13.05 10.17 L 12.04 8.44 L 15.5 6.43 L 16.5 8.16 L 19.68 13.61 L 20.68 15.34 L 17.22 17.35 L 16.22 15.62 L 13.05 10.17 Z " fill="#dee2e6"/></g><g><path d=" M 2.5 24 L 1 24 L 1 21 L 2.5 21 L 7.66 21 L 9.16 21 L 9.16 24 L 7.66 24 L 2.5 24 Z " fill="#f35b04"/><path d=" M 7.05 24.5 L 5.05 24.5 L 5.05 20.5 L 7.05 20.5 L 13.39 20.5 L 15.39 20.5 L 15.39 24.5 L 13.39 24.5 L 7.05 24.5 Z " fill="#f35b04"/></g><g><path d=" M 13.8 40.59 L 13.06 41.89 L 10.45 40.41 L 11.2 39.1 L 13.77 34.57 L 14.52 33.27 L 17.12 34.75 L 16.38 36.05 L 13.8 40.59 Z " fill="#dee2e6"/><path d=" M 16.5 36.84 L 15.5 38.57 L 12.04 36.56 L 13.05 34.83 L 16.22 29.38 L 17.22 27.65 L 20.68 29.66 L 19.68 31.39 L 16.5 36.84 Z " fill="#dee2e6"/></g><g><path d=" M 33.8 39.1 L 34.55 40.41 L 31.94 41.89 L 31.2 40.59 L 28.62 36.05 L 27.88 34.75 L 30.48 33.27 L 31.23 34.57 L 33.8 39.1 Z " fill="#dee2e6"/><path d=" M 31.95 34.83 L 32.96 36.56 L 29.5 38.57 L 28.5 36.84 L 25.32 31.39 L 24.32 29.66 L 27.78 27.65 L 28.78 29.38 L 31.95 34.83 Z " fill="#dee2e6"/></g><g><path d=" M 42.5 21 L 44 21 L 44 24 L 42.5 24 L 37.34 24 L 35.84 24 L 35.84 21 L 37.34 21 L 42.5 21 Z " fill="#dee2e6"/><path d=" M 37.95 20.5 L 39.95 20.5 L 39.95 24.5 L 37.95 24.5 L 31.61 24.5 L 29.61 24.5 L 29.61 20.5 L 31.61 20.5 L 37.95 20.5 Z " fill="#dee2e6"/></g><g><path d=" M 31.2 4.41 L 31.94 3.11 L 34.55 4.59 L 33.8 5.9 L 31.23 10.43 L 30.48 11.73 L 27.88 10.25 L 28.62 8.95 L 31.2 4.41 Z " fill="#dee2e6"/><path d=" M 28.5 8.16 L 29.5 6.43 L 32.96 8.44 L 31.95 10.17 L 28.78 15.62 L 27.78 17.35 L 24.32 15.34 L 25.32 13.61 L 28.5 8.16 Z " fill="#dee2e6"/></g><path d=" M 11.065 22.5 L 16.782 12.596 L 28.218 12.596 L 33.935 22.5 L 28.218 32.404 L 16.782 32.404 L 11.065 22.5 Z  M 15.68 22.5 L 19.09 16.6 L 25.91 16.6 L 29.32 22.5 L 25.91 28.4 L 19.09 28.4 L 15.68 22.5 Z " fill-rule="evenodd" fill="#f35b04"/></g></g></svg>